# xmcd
#
# Track frame offsets:
#	150
#	13977
#	34285
#	51917
#	69030
#	83110
#	100352
#	119700
#	135677
#	150315
#	168382
#	187327
#	215290
#
# Disc length: 3544 seconds
#
# Revision: 1
# Processed by: cddbd v1.5.1PL0 Copyright (c) Steve Scherf et al.
# Submitted via: EasyCDDAExtractor 7.0.5.4
#
DISCID=b70dd60d
DTITLE=Tracy Lawrence - Strong
DYEAR=2004
DGENRE=Country
TTITLE0=It's All How You Look At It
TTITLE1=Strong
TTITLE2=Stones
TTITLE3=Paint Me A Birmingham
TTITLE4=Everywhere But Hollywood
TTITLE5=Far Cry From You
TTITLE6=Bobby Darwin's Daughter
TTITLE7=What The Flames Feel Like
TTITLE8=Sawdust On Her Halo
TTITLE9=When Daddy Was A Strong Man
TTITLE10=Think Of Me
TTITLE11=Questionnaire
TTITLE12=Data
EXTD=
EXTT0=
EXTT1=
EXTT2=
EXTT3=
EXTT4=
EXTT5=
EXTT6=
EXTT7=
EXTT8=
EXTT9=
EXTT10=
EXTT11=
EXTT12=
PLAYORDER=
